<?xml version="1.0" encoding="UTF-8" standalone="no"?>
<svg
   xmlns:dc="http://purl.org/dc/elements/1.1/"
   xmlns:cc="http://creativecommons.org/ns#"
   xmlns:rdf="http://www.w3.org/1999/02/22-rdf-syntax-ns#"
   xmlns:svg="http://www.w3.org/2000/svg"
   xmlns="http://www.w3.org/2000/svg"
   xmlns:sodipodi="http://sodipodi.sourceforge.net/DTD/sodipodi-0.dtd"
   xmlns:inkscape="http://www.inkscape.org/namespaces/inkscape"
   viewBox="0 0 354.40375 66.509873"
   height="66.509872"
   width="354.40375"
   xml:space="preserve"
   version="1.1"
   id="svg2"
   inkscape:version="0.91 r13725"
   sodipodi:docname="logo — копия.svg"><sodipodi:namedview
     pagecolor="#ffffff"
     bordercolor="#666666"
     borderopacity="1"
     objecttolerance="10"
     gridtolerance="10"
     guidetolerance="10"
     inkscape:pageopacity="0"
     inkscape:pageshadow="2"
     inkscape:window-width="1366"
     inkscape:window-height="705"
     id="namedview15"
     showgrid="false"
     inkscape:zoom="2.1444468"
     inkscape:cx="142.18903"
     inkscape:cy="19.721991"
     inkscape:window-x="-8"
     inkscape:window-y="-8"
     inkscape:window-maximized="1"
     inkscape:current-layer="svg2" /><metadata
     id="metadata8"><rdf:RDF><cc:Work
         rdf:about=""><dc:format>image/svg+xml</dc:format><dc:type
           rdf:resource="http://purl.org/dc/dcmitype/StillImage" /><dc:title /></cc:Work></rdf:RDF></metadata><defs
     id="defs6"><clipPath
       id="clipPath18"
       clipPathUnits="userSpaceOnUse"><path
         id="path20"
         d="m 0,113.387 340.158,0 L 340.158,0 0,0 0,113.387 Z" /></clipPath></defs><g
     transform="matrix(1.25,0,0,-1.25,-33.581375,102.60437)"
     id="g10"
     style="fill:#ffffff"><path
       id="path12"
       style="fill:#ffffff;fill-opacity:1;fill-rule:nonzero;stroke:none"
       d="m 247.424,33.139 62.942,0 0,0.623 -62.942,0 0,-0.623 z m -217.58,0 67.716,0 0,0.623 -67.716,0 0,-0.623 z" /><g
       id="g14"
       style="fill:#ffffff"><g
         clip-path="url(#clipPath18)"
         id="g16"
         style="fill:#ffffff"><g
           transform="translate(229.9463,37.6816)"
           id="g22"
           style="fill:#ffffff"><path
             id="path24"
             style="fill:#ffffff;fill-opacity:1;fill-rule:nonzero;stroke:none"
             d="m 0,0 0.949,0 0,-8.634 -0.777,0 -5.572,7.078 0,-7.078 -0.952,0 0,8.634 0.913,0 L 0,-6.92 0,0 Z m -22.361,-0.889 -5.266,0 0,-2.95 4.711,0 0,-0.886 -4.711,0 0,-3.021 5.328,0 0,-0.888 -6.303,0 0,8.634 6.241,0 0,-0.889 z m -25.813,-0.013 -2.021,0 0,-6.83 2.021,0 c 2.184,0 3.578,1.478 3.578,3.402 0,1.924 -1.394,3.428 -3.578,3.428 m 0,-7.732 -2.996,0 0,8.634 2.996,0 c 2.715,0 4.588,-1.863 4.588,-4.306 0,-2.44 -1.873,-4.328 -4.588,-4.328 m -18.287,7.745 -5.266,0 0,-2.95 4.711,0 0,-0.886 -4.711,0 0,-3.021 5.327,0 0,-0.888 -6.301,0 0,8.634 6.24,0 0,-0.889 z m -25.975,0.864 0.803,0 2.369,-7.213 2.465,7.188 1.024,0 -3.082,-8.694 -0.827,0 -2.367,7.006 -2.381,-7.006 -0.814,0 -3.084,8.694 1.061,0 2.466,-7.188 2.367,7.213 z m -20.869,-3.871 c 1.924,-0.42 2.811,-1.124 2.811,-2.456 0,-1.493 -1.234,-2.454 -2.948,-2.454 -1.37,0 -2.491,0.458 -3.527,1.381 l 0.604,0.716 c 0.901,-0.814 1.764,-1.222 2.96,-1.222 1.159,0 1.924,0.607 1.924,1.482 0,0.813 -0.431,1.268 -2.245,1.651 -1.985,0.433 -2.897,1.075 -2.897,2.505 0,1.381 1.196,2.366 2.836,2.366 1.257,0 2.158,-0.356 3.033,-1.059 l -0.567,-0.752 c -0.8,0.652 -1.603,0.936 -2.491,0.936 -1.123,0 -1.837,-0.616 -1.837,-1.405 0,-0.826 0.444,-1.283 2.344,-1.689" /></g><g
           transform="translate(61.2061,65.1475)"
           id="g26"
           style="fill:#ffffff"><path
             id="path28"
             style="fill:#ffffff;fill-opacity:1;fill-rule:nonzero;stroke:none"
             d="m 0,0 c 0,-9.483 -7.688,-17.172 -17.171,-17.172 -9.482,0 -17.17,7.689 -17.17,17.172 0,8.514 6.195,15.579 14.324,16.936 l 0.028,-0.123 c -6.336,-2.464 -10.139,-8.435 -10.139,-15.41 0,-8.912 6.295,-14.029 12.957,-14.029 6.974,0 12.626,5.651 12.626,12.626 0,5.986 -4.735,10.968 -10.901,10.968 -7.135,0 -10.508,-6.481 -10.508,-6.481 l -0.111,0.038 c 0,0 3.211,9.303 12.511,9.303 C -7.819,13.828 0,9.153 0,0 m 149.465,-5.006 5.599,12.777 5.559,-12.777 -11.158,0 z m 16.24,-11.682 4.904,0 -13.593,30.035 -3.817,0 -13.594,-30.035 4.741,0 3.386,7.727 14.612,0 3.361,-7.727 z m -147.86,15.274 8.175,0 c 4.096,0 6.743,2.086 6.743,5.313 0,3.221 -2.445,5.068 -6.703,5.068 l -8.215,0 0,-10.381 z m 21.05,-15.245 -5.664,0 -8.132,11.117 -7.254,0 0,-11.117 -4.455,0 0,29.837 12.915,0 c 6.654,0 11.035,-3.594 11.035,-9.157 0,-4.387 -2.795,-7.611 -7.395,-8.775 l 8.95,-11.905 z m -21.052,15.249 8.176,0 c 4.097,0 6.744,2.084 6.744,5.309 0,3.221 -2.445,5.068 -6.704,5.068 l -8.216,0 0,-10.377 z m 21.053,-15.241 -5.665,0 -8.133,11.116 -7.255,0 0,-11.116 -4.455,0 0,29.829 12.917,0 c 6.653,0 11.035,-3.594 11.035,-9.157 0,-4.383 -2.796,-7.607 -7.395,-8.768 l 8.951,-11.904 z m -21.051,15.237 8.175,0 c 4.096,0 6.743,2.086 6.743,5.313 0,3.221 -2.445,5.068 -6.703,5.068 l -8.215,0 0,-10.381 z m 21.05,-15.245 -5.664,0 -8.132,11.117 -7.254,0 0,-11.117 -4.455,0 0,29.837 12.915,0 c 6.654,0 11.035,-3.594 11.035,-9.157 0,-4.387 -2.795,-7.611 -7.395,-8.775 l 8.95,-11.905 z m -21.052,15.249 8.176,0 c 4.097,0 6.744,2.084 6.744,5.309 0,3.221 -2.445,5.068 -6.704,5.068 l -8.216,0 0,-10.377 z m 21.053,-15.241 -5.665,0 -8.133,11.116 -7.255,0 0,-11.116 -4.455,0 0,29.829 12.917,0 c 6.653,0 11.035,-3.594 11.035,-9.157 0,-4.383 -2.796,-7.607 -7.395,-8.768 l 8.951,-11.904 z m 210.286,-0.037 -22.114,0 0,29.831 21.911,0 0,-4.17 -17.456,0 0,-8.538 15.616,0 0,-4.167 -15.616,0 0,-8.786 17.659,0 0,-4.17 z m -53.26,7.848 -9.486,14.206 0,-22.054 -2.188,0 -2.185,0 0,29.831 4.21,0 10.096,-15.119 10.096,15.119 4.211,0 0,-29.831 -2.229,0 -2.228,0 0,22.09 -9.485,-14.242 -0.406,-0.6 -0.406,0.6 z m -65.127,-7.848 -20.561,0 0,29.831 4.457,0 0,-25.62 16.104,0 0,-4.211 z m -51.955,0 -4.457,0 0,29.831 21.787,0 0,-4.21 -17.33,0 0,-8.989 15.492,0 0,-4.167 -15.492,0 0,-12.465 z m -21.54,0 -4.455,0 0,29.829 4.455,0 0,-29.829 z" /></g></g></g></g></svg>