<?xml version="1.0" encoding="iso-8859-1"?>
<!-- Generator: Adobe Illustrator 19.0.0, SVG Export Plug-In . SVG Version: 6.00 Build 0)  -->
<svg version="1.1" id="Layer_1" xmlns="http://www.w3.org/2000/svg" xmlns:xlink="http://www.w3.org/1999/xlink" x="0px" y="0px"
	 viewBox="0 0 512 512" style="enable-background:new 0 0 512 512;" xml:space="preserve">
<path style="fill:#FF6D68;" d="M372.285,286.593h-55.264c-15.606,0-28.259-12.652-28.259-28.26V19.948
	C288.762,8.977,279.785,0,268.814,0H46.963C35.99,0,27.014,8.977,27.014,19.948v379.347C27.014,461.54,77.473,512,139.717,512
	h232.568c62.244,0,112.703-50.46,112.703-112.704C484.988,337.053,434.529,286.593,372.285,286.593z"/>
<g>
	<path style="fill:#AB4A47;" d="M380.235,399.296c0,39.77,18.551,75.201,47.471,98.124c34.191-19.354,57.281-56.031,57.281-98.124
		c0-42.092-23.09-78.769-57.281-98.122C398.787,324.097,380.235,359.528,380.235,399.296z"/>
	<path style="fill:#AB4A47;" d="M27.014,362.743v36.553C27.014,461.54,77.473,512,139.717,512h36.554
		C176.271,429.567,109.446,362.743,27.014,362.743z"/>
</g>
<path style="fill:#00B288;" d="M268.814,0H46.963C35.99,0,27.014,8.977,27.014,19.948v66.494h261.748V19.948
	C288.762,8.977,279.785,0,268.814,0z"/>
<g style="opacity:0.15;">
	<rect x="149.553" width="16.67" height="86.439"/>
	<rect x="76.383" width="16.67" height="86.439"/>
	<rect x="222.722" width="16.67" height="86.439"/>
</g>
<path style="fill:#FFFFFF;" d="M67.3,130.041c14.057,0,27.58,10.013,38.077,28.194c13.599,23.556,32.247,36.528,52.511,36.529
	c0.001,0-0.001,0,0.001,0c20.262,0,38.913-12.974,52.512-36.529c10.497-18.181,24.018-28.194,38.075-28.194
	c14.056,0,27.579,10.013,38.076,28.193c0.719,1.246,1.459,2.457,2.209,3.648v-28.885c-11.699-12.776-25.566-19.628-40.287-19.628
	c-20.263,0-38.912,12.973-52.511,36.529c-10.498,18.181-24.02,28.194-38.077,28.194c-14.056,0-27.579-10.013-38.075-28.194
	c-13.6-23.557-32.251-36.529-52.514-36.529c-14.72,0-28.586,6.852-40.286,19.628v28.886c0.751-1.191,1.491-2.404,2.21-3.65
	C39.721,140.054,53.244,130.041,67.3,130.041z"/>
<path style="fill:#F9BE00;" d="M288.762,258.333v-28.826c-11.699-12.776-25.566-19.628-40.287-19.628
	c-20.263,0-38.912,12.973-52.511,36.529c-10.498,18.181-24.02,28.194-38.077,28.194c-14.056,0-27.579-10.013-38.075-28.194
	c-13.6-23.557-32.251-36.529-52.514-36.529c-14.72,0-28.586,6.852-40.286,19.629v28.885c0.751-1.191,1.491-2.404,2.21-3.65
	c10.496-18.181,24.019-28.194,38.075-28.194c14.057,0,27.58,10.013,38.077,28.194c13.599,23.556,32.247,36.528,52.511,36.529
	c0.001,0-0.001,0,0.001,0c20.262,0,38.913-12.974,52.512-36.529c10.496-18.181,24.018-28.194,38.075-28.194
	c14.056,0,27.579,10.013,38.076,28.193c0.719,1.247,1.46,2.459,2.21,3.652C288.763,258.373,288.762,258.353,288.762,258.333z"/>
<g style="opacity:0.2;">
	<path d="M205.605,486.133c-2.133,0-4.266-0.813-5.893-2.442c-3.255-3.255-3.255-8.532,0-11.787l21.642-21.642
		c3.255-3.255,8.533-3.255,11.787,0c3.255,3.255,3.255,8.533,0,11.787l-21.642,21.642
		C209.871,485.319,207.738,486.133,205.605,486.133z"/>
	<path d="M168.752,371.968c-2.133,0-4.266-0.814-5.893-2.442c-3.255-3.255-3.255-8.532,0-11.787l21.642-21.642
		c3.255-3.255,8.533-3.255,11.787,0c3.255,3.255,3.255,8.533,0,11.788l-21.642,21.642
		C173.018,371.154,170.886,371.968,168.752,371.968z"/>
	<path d="M247.671,321.771c-2.133,0-4.266-0.813-5.893-2.442l-21.642-21.642c-3.255-3.255-3.255-8.533,0-11.787
		c3.255-3.255,8.533-3.255,11.787,0l21.642,21.642c3.255,3.255,3.255,8.533,0,11.788
		C251.937,320.957,249.803,321.771,247.671,321.771z"/>
	<path d="M244.458,423.223c-2.133,0-4.266-0.814-5.893-2.442l-21.643-21.642c-3.255-3.255-3.255-8.532,0-11.787
		s8.533-3.256,11.787,0l21.643,21.642c3.256,3.255,3.256,8.532,0.001,11.787C248.724,422.408,246.592,423.223,244.458,423.223z"/>
	<path d="M353.052,350.075c-2.134,0-4.266-0.813-5.894-2.442l-21.641-21.642c-3.255-3.255-3.255-8.533,0.001-11.788
		c3.255-3.255,8.533-3.253,11.788,0l21.641,21.642c3.255,3.255,3.255,8.533-0.001,11.788
		C357.319,349.26,355.185,350.075,353.052,350.075z"/>
	<path d="M345.35,486.133c-2.134,0-4.266-0.813-5.894-2.442l-21.642-21.642c-3.255-3.255-3.255-8.533,0-11.787
		c3.257-3.255,8.534-3.255,11.788,0l21.642,21.642c3.255,3.255,3.255,8.533,0,11.787
		C349.616,485.319,347.482,486.133,345.35,486.133z"/>
	<path d="M293.485,400.693c-2.134,0-4.266-0.814-5.894-2.442c-3.255-3.255-3.255-8.533,0.001-11.787l21.643-21.642
		c3.255-3.255,8.533-3.255,11.787,0c3.254,3.255,3.255,8.533-0.001,11.787l-21.643,21.642
		C297.752,399.878,295.618,400.693,293.485,400.693z"/>
	<path d="M119.772,361.189c-2.133,0-4.266-0.814-5.893-2.442l-21.642-21.642c-3.255-3.255-3.255-8.532,0-11.787
		s8.533-3.255,11.787,0l21.642,21.642c3.255,3.255,3.255,8.532,0,11.787C124.039,360.375,121.905,361.189,119.772,361.189z"/>
	<path d="M57.141,304.375c-2.133,0-4.266-0.813-5.893-2.442c-3.255-3.255-3.255-8.532,0-11.787l21.642-21.643
		c3.255-3.255,8.533-3.256,11.787,0c3.255,3.255,3.255,8.532,0,11.787l-21.641,21.644C61.408,303.562,59.275,304.375,57.141,304.375
		z"/>
	<path d="M263.458,189.491c-2.133,0-4.266-0.813-5.893-2.44l-21.644-21.642c-3.255-3.255-3.255-8.533-0.001-11.788
		c3.255-3.255,8.532-3.255,11.788,0l21.643,21.642c3.256,3.255,3.256,8.533,0.001,11.788
		C267.725,188.678,265.591,189.491,263.458,189.491z"/>
	<path d="M152.606,250.317c-2.133,0-4.266-0.813-5.893-2.442c-3.255-3.255-3.255-8.533,0-11.788l21.643-21.643
		c3.255-3.255,8.533-3.255,11.787,0c3.255,3.255,3.255,8.533,0,11.787L158.5,247.874
		C156.873,249.502,154.739,250.317,152.606,250.317z"/>
	<path d="M81.893,195.966c-2.133,0-4.266-0.813-5.893-2.442l-21.643-21.642c-3.255-3.255-3.255-8.533,0-11.787
		c3.255-3.255,8.533-3.255,11.787,0l21.643,21.643c3.255,3.255,3.255,8.533,0,11.788C86.159,195.153,84.025,195.966,81.893,195.966z
		"/>
	<path d="M165.611,147.277c-2.133,0-4.266-0.813-5.893-2.442l-21.643-21.642c-3.255-3.255-3.255-8.532,0-11.787
		s8.533-3.255,11.787,0l21.643,21.642c3.255,3.255,3.255,8.532,0,11.787C169.878,146.462,167.745,147.277,165.611,147.277z"/>
</g>
<path style="opacity:0.15;enable-background:new    ;" d="M336.875,286.593h-55.263c-15.606,0-28.259-12.652-28.259-28.26V19.948
	C253.353,8.977,244.376,0,233.404,0H46.963C35.99,0,27.014,8.977,27.014,19.948v379.347C27.014,461.54,77.473,512,139.717,512
	h197.159c62.244,0,112.703-50.46,112.703-112.704C449.579,337.053,399.119,286.593,336.875,286.593z"/>
<g>
</g>
<g>
</g>
<g>
</g>
<g>
</g>
<g>
</g>
<g>
</g>
<g>
</g>
<g>
</g>
<g>
</g>
<g>
</g>
<g>
</g>
<g>
</g>
<g>
</g>
<g>
</g>
<g>
</g>
</svg>
